# File created by Blade
# Date/Time:  Thu Sep 25 18:48:06 2014
# Frame Rate: 120.000 fps
#------------------------------------------------------
:FULLY-SPECIFIED
:DEGREES
1171
root 1.588305 32.814171 2.953756 11.598678 5.747915 1.346537
Spine -21.258200 7.150249 -3.653532
Head 20.491969 -8.316022 11.945513
LeftShoulder -12.740386 10.935946 30.032760
LeftArm 161.245541 -31.530305 -113.724905
LeftForeArm -50.672296 -0.000000 150.149117
LeftHand -1.896901 -0.000000 -13.148698
LeftHandThumb1 -26.253704 0.000000 33.147579
RightShoulder -7.662031 6.702418 -11.109982
RightArm -151.072317 -65.151609 252.169008
RightForeArm -31.381800 -0.000000 110.097233
RightHand 44.964434 -0.000000 -14.964831
RightHandThumb1 -24.326973 -0.000000 -32.862282
LeftUpLeg -2.846109 3.723191 1.995506
LeftLeg -3.189208 -0.000000 0.000000
LeftFoot -8.919000 3.380960 -13.094100
LeftToeBase 10.509892 -0.000000 -0.000000
RightUpLeg -1.369213 -16.167461 -6.602710
RightLeg -1.129415 -0.000000 0.000000
RightFoot -6.900394 -3.409286 7.659822
RightToeBase 0.841900 -0.000000 -0.000000
1172
root 1.589583 32.814472 2.967659 11.591279 5.763084 1.342380
Spine -21.312910 7.079670 -3.650277
Head 20.193699 -8.276366 12.560557
LeftShoulder -12.744115 10.845559 29.920655
LeftArm 161.187849 -31.489071 -113.764794
LeftForeArm -50.836204 0.000000 150.169750
LeftHand -1.698186 -0.000000 -13.873531
LeftHandThumb1 -26.253704 0.000000 33.147579
RightShoulder -7.602479 6.702372 -11.112360
RightArm -151.051038 -65.219335 252.134774
RightForeArm -31.380866 -0.000000 110.134268
RightHand 44.976126 -0.000000 -14.899565
RightHandThumb1 -24.326973 -0.000000 -32.862282
LeftUpLeg -2.825426 3.720320 2.006297
LeftLeg -3.183896 -0.000000 0.000000
LeftFoot -8.915009 3.362098 -13.006525
LeftToeBase 10.488944 -0.000000 -0.000000
RightUpLeg -1.323144 -16.122999 -6.606838
RightLeg -1.154015 -0.000000 0.000000
RightFoot -6.863703 -3.479281 7.638603
RightToeBase 0.734562 -0.000000 -0.000000
1173
root 1.590825 32.814590 2.981563 11.584490 5.793880 1.338374
Spine -21.377768 7.043270 -3.646378
Head 19.919429 -8.309646 12.989738
LeftShoulder -12.697679 10.859360 29.783974
LeftArm 161.255164 -31.447559 -113.852822
LeftForeArm -50.947785 -0.000000 150.199506
LeftHand -1.470846 -0.000000 -14.591605
LeftHandThumb1 -26.253704 0.000000 33.147579
RightShoulder -7.591213 6.702270 -11.126320
RightArm -150.980857 -65.319772 252.046362
RightForeArm -31.357356 0.000000 110.175666
RightHand 45.048383 -0.000000 -14.700597
RightHandThumb1 -24.326973 -0.000000 -32.862282
LeftUpLeg -2.803780 3.697132 2.015987
LeftLeg -3.170790 -0.000000 0.000000
LeftFoot -8.933419 3.353831 -13.025622
LeftToeBase 10.499681 -0.000000 -0.000000
RightUpLeg -1.274206 -16.080235 -6.609027
RightLeg -1.171184 -0.000000 0.000000
RightFoot -6.883393 -3.533526 7.724817
RightToeBase 0.803883 -0.000000 -0.000000
1174
root 1.590282 32.814035 2.995014 11.582109 5.838354 1.327619
Spine -21.437270 6.990245 -3.632646
Head 19.682380 -8.365053 13.345808
LeftShoulder -12.637784 10.902628 29.635815
LeftArm 161.388366 -31.452889 -113.977643
LeftForeArm -51.085815 0.000000 150.231165
LeftHand -1.301436 0.000000 -15.132582
LeftHandThumb1 -26.253704 0.000000 33.147579
RightShoulder -7.619074 6.739966 -11.153993
RightArm -150.960546 -65.329043 252.047096
RightForeArm -31.324743 0.000000 110.182483
RightHand 45.091508 -0.000000 -14.770539
RightHandThumb1 -24.326973 -0.000000 -32.862282
LeftUpLeg -2.798020 3.698550 2.035800
LeftLeg -3.141182 -0.000000 0.000000
LeftFoot -8.958126 3.307131 -13.049813
LeftToeBase 10.525998 -0.000000 -0.000000
RightUpLeg -1.228191 -16.050994 -6.598852
RightLeg -1.192654 -0.000000 0.000000
RightFoot -6.886145 -3.593466 7.759338
RightToeBase 0.811500 -0.000000 -0.000000
1175
root 1.591263 32.813661 3.006956 11.583721 5.885481 1.331514
Spine -21.495857 6.914116 -3.624116
Head 19.421676 -8.364906 13.691391
LeftShoulder -12.601334 10.918733 29.493051
LeftArm 161.493629 -31.448030 -114.105465
LeftForeArm -51.201391 -0.000000 150.272597
LeftHand -1.221715 -0.000000 -15.611857
LeftHandThumb1 -26.253704 0.000000 33.147579
RightShoulder -7.604922 6.705060 -11.158318
RightArm -151.130863 -65.391603 252.218462
RightForeArm -31.309635 -0.000000 110.186438
RightHand 45.150437 -0.000000 -14.802366
RightHandThumb1 -24.326973 -0.000000 -32.862282
LeftUpLeg -2.803300 3.708943 2.032501
LeftLeg -3.092455 -0.000000 0.000000
LeftFoot -8.991411 3.276966 -13.069271
LeftToeBase 10.512357 -0.000000 -0.000000
RightUpLeg -1.189998 -16.010755 -6.605650
RightLeg -1.206057 -0.000000 0.000000
RightFoot -6.897208 -3.658991 7.799348
RightToeBase 0.809638 -0.000000 -0.000000
1176
root 1.592829 32.812410 3.018907 11.575520 5.918394 1.332463
Spine -21.557055 6.840556 -3.599404
Head 19.146933 -8.374728 14.050637
LeftShoulder -12.540915 10.851070 29.390267
LeftArm 161.492053 -31.535156 -114.189792
LeftForeArm -50.956599 -0.000000 150.353331
LeftHand -1.086698 -0.000000 -15.865604
LeftHandThumb1 -26.253704 0.000000 33.147579
RightShoulder -7.595597 6.786823 -11.209255
RightArm -151.102467 -65.427753 252.270569
RightForeArm -31.250038 -0.000000 110.166351
RightHand 45.232749 -0.000000 -14.850381
RightHandThumb1 -24.326973 -0.000000 -32.862282
LeftUpLeg -2.786794 3.757371 2.038332
LeftLeg -3.084491 -0.000000 0.000000
LeftFoot -8.991971 3.174521 -13.009732
LeftToeBase 10.556067 -0.000000 -0.000000
RightUpLeg -1.147230 -15.978915 -6.615349
RightLeg -1.212799 -0.000000 0.000000
RightFoot -6.913928 -3.701310 7.819713
RightToeBase 0.844437 -0.000000 -0.000000
1177
root 1.595097 32.810542 3.031405 11.578960 5.952528 1.333552
Spine -21.630163 6.702746 -3.551953
Head 18.906889 -8.349368 14.320489
LeftShoulder -12.547426 10.852125 29.292585
LeftArm 161.533144 -31.531458 -114.336427
LeftForeArm -50.645107 -0.000000 150.466044
LeftHand -1.101645 -0.000000 -16.002542
LeftHandThumb1 -26.253704 0.000000 33.147579
RightShoulder -7.546801 6.867758 -11.278220
RightArm -151.101986 -65.410324 252.343671
RightForeArm -31.175174 -0.000000 110.164680
RightHand 45.298480 -0.000000 -15.025159
RightHandThumb1 -24.326973 -0.000000 -32.862282
LeftUpLeg -2.773026 3.796025 2.039548
LeftLeg -3.082055 -0.000000 0.000000
LeftFoot -8.992512 3.083846 -13.023200
LeftToeBase 10.462066 -0.000000 -0.000000
RightUpLeg -1.109574 -15.940090 -6.623972
RightLeg -1.228632 -0.000000 0.000000
RightFoot -6.932819 -3.756775 7.863341
RightToeBase 0.829018 -0.000000 -0.000000
1178
root 1.597970 32.809529 3.044370 11.629989 5.986887 1.310085
Spine -21.776321 6.434922 -3.434711
Head 18.688312 -8.288196 14.569535
LeftShoulder -12.727825 10.951403 29.194591
LeftArm 161.520563 -31.440562 -114.452319
LeftForeArm -50.206122 -0.000000 150.591706
LeftHand -1.122923 -0.000000 -16.045872
LeftHandThumb1 -26.253704 0.000000 33.147579
RightShoulder -7.369952 6.981751 -11.334928
RightArm -151.038713 -65.360818 252.337976
RightForeArm -31.135199 -0.000000 110.186175
RightHand 45.299789 -0.000000 -15.218581
RightHandThumb1 -24.326973 -0.000000 -32.862282
LeftUpLeg -2.800076 3.856945 2.058074
LeftLeg -3.101022 -0.000000 0.000000
LeftFoot -8.998721 3.008199 -12.982744
LeftToeBase 10.561764 -0.000000 -0.000000
RightUpLeg -1.134909 -15.932034 -6.591716
RightLeg -1.224383 -0.000000 0.000000
RightFoot -6.934654 -3.783034 7.875707
RightToeBase 0.844501 -0.000000 -0.000000
1179
root 1.599397 32.808743 3.056888 11.634481 6.020296 1.318444
Spine -21.872085 6.326810 -3.431644
Head 18.457470 -8.405212 14.831704
LeftShoulder -12.764596 11.087887 29.059562
LeftArm 161.597259 -31.328162 -114.537586
LeftForeArm -49.487511 -0.000000 150.726295
LeftHand -1.076575 -0.000000 -15.990695
LeftHandThumb1 -26.253704 0.000000 33.147579
RightShoulder -7.338582 7.051660 -11.364486
RightArm -150.997325 -65.291293 252.347242
RightForeArm -31.100190 -0.000000 110.183603
RightHand 45.230200 0.000000 -15.684926
RightHandThumb1 -24.326973 -0.000000 -32.862282
LeftUpLeg -2.781285 3.917577 2.052689
LeftLeg -3.108634 -0.000000 0.000000
LeftFoot -8.970099 2.893671 -12.992682
LeftToeBase 10.514589 -0.000000 -0.000000
RightUpLeg -1.103457 -15.938326 -6.601774
RightLeg -1.236415 -0.000000 0.000000
RightFoot -6.894691 -3.861181 7.789958
RightToeBase 0.670028 -0.000000 -0.000000
1180
root 1.602907 32.807849 3.070611 11.625997 6.052722 1.349021
Spine -21.960982 6.277514 -3.460103
Head 18.272670 -8.579982 15.004566
LeftShoulder -12.715577 11.085417 28.962096
LeftArm 161.592893 -31.246024 -114.577423
LeftForeArm -48.656557 0.000000 150.895654
LeftHand -0.959825 0.000000 -15.852818
LeftHandThumb1 -26.253704 0.000000 33.147579
RightShoulder -7.388290 7.112991 -11.417308
RightArm -150.925816 -65.275039 252.293357
RightForeArm -31.034295 -0.000000 110.219597
RightHand 45.159193 -0.000000 -15.768212
RightHandThumb1 -24.326973 -0.000000 -32.862282
LeftUpLeg -2.735312 3.955290 2.015163
LeftLeg -3.124059 -0.000000 0.000000
LeftFoot -9.011602 2.892821 -12.909995
LeftToeBase 10.723407 -0.000000 -0.000000
RightUpLeg -1.051233 -15.952753 -6.643732
RightLeg -1.246224 -0.000000 0.000000
RightFoot -6.908738 -3.868534 7.805783
RightToeBase 0.680053 -0.000000 -0.000000
1181
root 1.602008 32.806672 3.081995 11.640567 6.085227 1.363827
Spine -22.086995 6.237656 -3.501690
Head 18.077038 -8.798636 15.208658
LeftShoulder -12.646754 11.114811 28.879598
LeftArm 161.660646 -31.072796 -114.649755
LeftForeArm -47.789131 -0.000000 151.040988
LeftHand -0.923423 -0.000000 -15.805900
LeftHandThumb1 -26.253704 0.000000 33.147579
RightShoulder -7.462093 7.140708 -11.444466
RightArm -150.874264 -65.337047 252.240503
RightForeArm -31.047918 -0.000000 110.272413
RightHand 45.121855 -0.000000 -15.822579
RightHandThumb1 -24.326973 -0.000000 -32.862282
LeftUpLeg -2.714547 4.024094 2.015003
LeftLeg -3.182727 -0.000000 0.000000
LeftFoot -8.886804 2.707188 -13.014825
LeftToeBase 10.473489 -0.000000 -0.000000
RightUpLeg -1.029713 -15.970254 -6.651648
RightLeg -1.255916 -0.000000 0.000000
RightFoot -6.966046 -3.836625 7.901244
RightToeBase 0.782499 -0.000000 -0.000000
1182
root 1.605108 32.805870 3.095200 11.624453 6.085425 1.402416
Spine -22.161933 6.181405 -3.527067
Head 17.923080 -8.838296 15.339189
LeftShoulder -12.611704 11.083869 28.771379
LeftArm 161.700811 -30.908250 -114.717789
LeftForeArm -47.110443 -0.000000 151.238159
LeftHand -1.059074 -0.000000 -15.622459
LeftHandThumb1 -26.253704 0.000000 33.147579
RightShoulder -7.457721 7.247446 -11.495170
RightArm -150.600582 -65.435356 251.990263
RightForeArm -31.070715 -0.000000 110.310331
RightHand 45.136173 0.000000 -15.856054
RightHandThumb1 -24.326973 -0.000000 -32.862282
LeftUpLeg -2.654524 4.121934 1.969893
LeftLeg -3.209290 -0.000000 0.000000
LeftFoot -8.865120 2.617092 -13.043480
LeftToeBase 10.511985 -0.000000 -0.000000
RightUpLeg -0.965522 -15.948849 -6.710043
RightLeg -1.287998 -0.000000 0.000000
RightFoot -6.979778 -3.834156 7.933355
RightToeBase 0.815333 -0.000000 -0.000000
